<svg xmlns="http://www.w3.org/2000/svg" viewBox="0 0 64 64" role="img" aria-label="0G">
  <rect width="64" height="64" rx="32" fill="#070A0F"/>
  <circle cx="32" cy="32" r="28" fill="#101725" stroke="#A77BFF" stroke-width="2"/>
  <path d="M24.7 45.6c-7.1 0-11.8-5.4-11.8-13.6s4.7-13.6 11.8-13.6c7.2 0 11.8 5.4 11.8 13.6s-4.6 13.6-11.8 13.6Zm0-7.2c2.8 0 4.4-2.4 4.4-6.4s-1.6-6.4-4.4-6.4c-2.7 0-4.3 2.4-4.3 6.4s1.6 6.4 4.3 6.4Z" fill="#FFFFFF"/>
  <path d="M50.9 29.5v5.7c-.7 6.3-5.3 10.4-12.1 10.4-7.9 0-13.5-5.6-13.5-13.6 0-8.1 5.7-13.6 13.7-13.6 5.3 0 9.6 2.4 11.5 6.5l-6.6 3.2c-.8-1.7-2.6-2.8-4.9-2.8-3.8 0-6.1 2.6-6.1 6.7 0 4.2 2.5 6.9 6.4 6.9 2.8 0 4.6-1.1 5.2-3.1h-6.2v-6.3h12.6Z" fill="#9BF7FF"/>
</svg>
